<?xml version="1.0" encoding="utf-8"?>
<!-- Generator: Adobe Illustrator 16.0.0, SVG Export Plug-In . SVG Version: 6.00 Build 0)  -->
<!DOCTYPE svg PUBLIC "-//W3C//DTD SVG 1.1//EN" "http://www.w3.org/Graphics/SVG/1.1/DTD/svg11.dtd">
<svg version="1.1" id="Layer_1" xmlns="http://www.w3.org/2000/svg" xmlns:xlink="http://www.w3.org/1999/xlink" x="0px" y="0px"
	 width="180px" height="110px" viewBox="0 0 180 110" enable-background="new 0 0 180 110" xml:space="preserve">
<g>
	<g>
		<path fill-rule="evenodd" clip-rule="evenodd" fill="#FCFCFC" d="M90.58,96.626c-28.372-0.02-56.746-0.042-85.12-0.063
			c-0.789,0-1.593-0.095-2.361,0.02c-1.046,0.159-0.97-0.363-0.965-1.019c0.026-3.333,0.016-6.669,0.019-10.005
			c0.017-23.032,0.033-46.064,0.05-69.096c0-0.729,0.102-1.474-0.023-2.185c-0.171-0.967,0.392-0.928,1.102-0.891
			c0.673,0.037,1.35,0.009,2.026,0.009c56.86,0.042,113.72,0.083,170.582,0.125c0.787,0,1.592,0.095,2.36-0.021
			c1.046-0.158,0.97,0.364,0.965,1.02c-0.025,3.334-0.016,6.67-0.02,10.005c-0.016,23.033-0.032,46.065-0.05,69.098
			c0,0.728-0.104,1.474,0.022,2.183c0.17,0.969-0.393,0.898-1.101,0.894c-3.49-0.023-6.98-0.015-10.471-0.018
			C141.925,96.663,116.253,96.644,90.58,96.626z M52.117,45.559c-14.624,0.009-29.249,0.018-43.873,0.025
			c-0.338,0-0.743-0.123-0.995,0.011c-0.264,0.139-0.587,0.576-0.52,0.781c0.228,0.688,0.57,1.357,0.952,1.992
			c3.593,5.967,7.285,11.883,10.762,17.907c1.222,2.118,2.743,2.872,5.327,2.85c11.464-0.108,22.932,0.063,34.396-0.084
			c2.689-0.035,4.08,0.66,4.96,3.022c2.078,5.578,4.465,11.058,6.574,16.626c0.688,1.819,1.648,2.484,3.804,2.464
			c11.141-0.094,22.284-0.041,33.428,0.034c1.589,0.011,2.355-0.381,2.923-1.858c2.401-6.227,5.027-12.378,7.482-18.589
			c0.569-1.439,1.312-1.96,3.067-1.944c11.928,0.104,23.857-0.031,35.782,0.151c2.731,0.042,3.948-0.905,5.101-2.994
			c2.441-4.421,5.213-8.688,7.825-13.027c1.184-1.968,2.351-3.943,3.454-5.949c0.726-1.321,0.479-1.659-1.062-1.66
			c-16.994,0.005-33.988,0.012-50.979,0.036c-0.539,0.001-1.078,0.19-1.617,0.292c-0.792-0.857-1.577-1.72-2.378-2.57
			c-0.523-0.555-0.803-0.908,0.307-1.24c1.566-0.47,3.229-0.937,4.55-1.799c6.632-4.328,7.053-10.883,2.467-16.106
			c-2.984-3.401-6.983-4.665-11.592-4.666c-20.694-0.003-41.387-0.026-62.082-0.041c-0.563,0-1.128,0.041-1.686-0.004
			c-1.136-0.092-1.642,0.34-1.633,1.413c0.016,1.873,0.038,3.75-0.086,5.618c-0.088,1.312,0.608,1.625,1.799,1.599
			c0.561-0.012,1.13,0.084,1.685,0.03c1.456-0.144,1.957,0.43,1.939,1.765C52.127,34.948,52.137,40.253,52.117,45.559z"/>
		<path fill-rule="evenodd" clip-rule="evenodd" fill="#141AA4" d="M118.909,45.645c0.539-0.103,1.078-0.291,1.617-0.292
			c16.991-0.024,33.985-0.031,50.979-0.036c1.541,0,1.787,0.338,1.062,1.66c-1.104,2.006-2.271,3.981-3.454,5.949
			c-2.612,4.339-5.384,8.606-7.825,13.027c-1.152,2.089-2.369,3.036-5.101,2.994c-11.925-0.183-23.854-0.048-35.782-0.151
			c-1.756-0.016-2.498,0.505-3.067,1.944c-2.455,6.211-5.081,12.362-7.482,18.589c-0.567,1.478-1.334,1.869-2.923,1.858
			c-11.144-0.075-22.287-0.128-33.428-0.034c-2.156,0.021-3.116-0.645-3.804-2.464c-2.108-5.568-4.496-11.048-6.574-16.626
			c-0.881-2.362-2.271-3.058-4.96-3.022c-11.464,0.147-22.932-0.024-34.396,0.084c-2.584,0.022-4.105-0.731-5.327-2.85
			c-3.477-6.023-7.169-11.94-10.762-17.907c-0.382-0.635-0.724-1.303-0.952-1.992c-0.067-0.205,0.256-0.643,0.52-0.781
			c0.251-0.133,0.657-0.011,0.995-0.011c14.624-0.008,29.249-0.017,43.873-0.025c0.04,2.759,0.04,2.759-3.063,3.108
			c-2.021,0.229-2.194,0.395-2.237,2.289c-0.027,1.243-0.038,2.486-0.015,3.73c0.047,2.569,0.099,2.643,2.806,2.654
			c5.826,0.027,11.653,0.047,17.478,0.004c1.966-0.015,3.93-0.226,5.895-0.347c0.091-1.845,0.247-3.69,0.256-5.536
			c0.013-2.417-0.037-2.417-2.528-2.467c-3.107-0.065-3.11-0.065-2.993-2.874c0.013-0.308,0.092-0.615,0.14-0.922
			c3.223,0.179,6.46,0.602,9.667,0.457c2.383-0.108,3.737,0.484,4.686,2.503c2.218,4.723,4.586,9.386,6.917,14.063
			c0.218,0.438,0.605,0.802,0.914,1.2c0.446-0.381,0.947-0.727,1.322-1.163c0.268-0.312,0.383-0.743,0.543-1.127
			c1.721-4.136,3.455-8.268,5.145-12.415c0.757-1.853,1.944-3.205,4.188-3.508c0.603,0.458,1.264,0.864,1.79,1.388
			c0.586,0.584,1.049,1.274,1.565,1.92c-0.823,0.137-1.653,0.415-2.468,0.381c-1.466-0.06-2.004,0.456-1.937,1.806
			c0.086,1.761,0.025,3.529,0.007,5.294c-0.007,0.915,0.403,1.258,1.429,1.219c1.904-0.071,3.814-0.015,5.722-0.013
			c6.509,0.007,13.019,0.027,19.527,0.012c2.165-0.007,2.185-0.05,2.224-2.092c0.029-1.557-0.028-3.117,0.013-4.674
			c0.027-1.02-0.341-1.552-1.541-1.501c-0.543,0.021-1.176-0.367-1.633-0.213c-2.641,0.88-4.212-0.469-5.708-2.143
			C119.882,46.206,119.353,45.956,118.909,45.645z M146.115,49.8c-0.309-0.028-0.764-0.189-0.898-0.061
			c-2.495,2.35-4.677,4.972-8,6.529c-0.891,0.418-1.214,1.891-1.752,2.899c-0.024,0.05,0.509,0.492,0.606,0.444
			c1.746-0.852,1.396,0.411,1.049,1.029c-0.818,1.467-1.881,2.817-2.807,4.235c-0.146,0.227-0.207,0.773-0.127,0.807
			c0.383,0.159,0.838,0.282,1.244,0.243c0.285-0.026,0.611-0.289,0.79-0.526c2.037-2.696,4.056-5.401,6.048-8.124
			c0.107-0.145-0.073-0.466-0.119-0.706c-1.991,0.475-1.04-0.402-0.478-0.954c0.524-0.517,1.195-0.901,1.763-1.384
			c1.425-1.212,2.653-2.534,2.617-4.481c0.1-0.037,0.212-0.061,0.293-0.12c0.029-0.021-0.012-0.129-0.02-0.197
			C146.254,49.557,146.185,49.678,146.115,49.8z M38.065,63.531c-2.627,0.236-2.682,0.222-2.373-2.076
			c0.332-2.493-0.316-4.523-2.827-5.817c-0.675-0.347-1.787-0.776-0.018-1.141c1.528-0.314,1.284-0.885,0.301-1.547
			c-1.175-0.791-2.305-0.901-3.731-0.231c-1.887,0.886-3.959,1.434-6.147,0.767c-0.236-0.072-0.537,0.041-0.808,0.066
			c0.056,0.279,0.008,0.65,0.185,0.823c1.893,1.861,4.073,2.388,6.635,1.196c0.328-0.153,0.991-0.187,1.158-0.005
			c0.212,0.228,0.25,0.854,0.056,1.099c-0.957,1.196-1.754,2.756-3.775,2.462c-0.983-0.144-0.876,0.291-0.731,0.8
			c0.139,0.491,0.324,0.998,0.622,1.418c0.6,0.847,1.288,1.64,1.94,2.455c-1.041,0.342-2.088,0.669-3.119,1.035
			c-0.269,0.096-0.488,0.312-0.73,0.471c0.229,0.157,0.462,0.451,0.687,0.447c2.233-0.055,4.463-0.199,6.697-0.238
			c3.332-0.06,6.665-0.076,9.998-0.061c0.997,0.005,1.991,0.215,2.991,0.26c0.246,0.013,0.709-0.239,0.716-0.384
			c0.011-0.256-0.18-0.624-0.412-0.764c-0.648-0.394-1.338-0.926-2.052-0.984C41.586,63.438,39.821,63.533,38.065,63.531z
			 M148.12,66.043c0.904-0.066,2.158-0.033,3.355-0.265c2.741-0.529,4.56-2.699,4.616-5.339c0.007-0.268-0.131-0.537-0.201-0.805
			c-0.212,0.228-0.485,0.427-0.628,0.686c-1.943,3.543-5.509,4.965-9.143,3.53c-0.372-0.147-0.79-1.111-0.617-1.375
			c1.014-1.543,1.836-3.106,3.865-4.045c2.878-1.327,5.44-3.247,8.124-4.938c0.36-0.226,0.805-0.534,0.901-0.877
			c0.144-0.517,0.015-1.099,0.002-1.653c-0.509,0.216-1.254,0.301-1.488,0.667c-1.337,2.09-3.591,3.084-5.701,4.244
			c-0.324,0.176-0.841,0.045-1.27,0.057c0.111-0.328,0.144-0.708,0.346-0.977c1.399-1.868,2.874-3.687,4.22-5.583
			c0.286-0.401,0.411-1.351,0.158-1.547c-0.808-0.623-1.678-0.399-2.238,0.474c-0.227,0.353-0.338,0.768-0.555,1.131
			c-2.158,3.642-4.372,7.233-8.291,9.59c-1.226,0.737-2.481,1.619-0.419,2.887c0.178,0.109,0.058,0.729-0.022,1.095
			c-0.49,2.214-0.291,2.56,1.964,2.884C145.981,66.012,146.889,65.986,148.12,66.043z M25.611,47.834
			c-0.667,0.137-1.049,0.214-1.431,0.293c0.207,0.23,0.378,0.504,0.628,0.684c0.999,0.718,1.304,1.395,0.05,2.178
			c-0.136,0.085,0.049,0.608,0.085,0.927c1.402-0.161,2.805-0.322,4.207-0.482c-0.538-0.987-0.939-2.076-1.67-2.919
			C27.079,48.052,26.121,48.003,25.611,47.834z"/>
		<path fill-rule="evenodd" clip-rule="evenodd" fill="#FD3730" d="M118.909,45.645c0.443,0.311,0.973,0.561,1.318,0.948
			c1.496,1.674,3.067,3.023,5.708,2.143c0.457-0.154,1.09,0.234,1.633,0.213c1.2-0.05,1.568,0.482,1.541,1.501
			c-0.041,1.557,0.017,3.117-0.013,4.674c-0.039,2.042-0.059,2.085-2.224,2.092c-6.509,0.016-13.019-0.005-19.527-0.012
			c-1.907-0.002-3.817-0.059-5.722,0.013c-1.025,0.039-1.436-0.304-1.429-1.219c0.019-1.765,0.079-3.533-0.007-5.294
			c-0.067-1.35,0.471-1.866,1.937-1.806c0.814,0.034,1.645-0.244,2.468-0.381c-0.517-0.646-0.979-1.336-1.565-1.92
			c-0.526-0.524-1.188-0.93-1.79-1.388c-1.51-0.924-2.529-2.322-4.836-2.273c-8.702,0.184-17.415,0.057-26.123,0.062
			c-2.102,0.002-2.102,0.032-2.422,2.201c-0.048,0.308-0.127,0.614-0.14,0.922c-0.117,2.809-0.114,2.809,2.993,2.874
			c2.491,0.051,2.542,0.051,2.528,2.467c-0.009,1.845-0.166,3.691-0.256,5.536c-1.965,0.121-3.929,0.332-5.895,0.347
			c-5.825,0.043-11.652,0.023-17.478-0.004c-2.708-0.012-2.759-0.085-2.806-2.654c-0.023-1.244-0.012-2.488,0.015-3.73
			c0.042-1.895,0.216-2.061,2.237-2.289c3.103-0.35,3.103-0.35,3.063-3.108c0.02-5.306,0.01-10.611,0.083-15.915
			c0.018-1.335-0.483-1.909-1.939-1.765c-0.554,0.055-1.124-0.042-1.685-0.03c-1.191,0.025-1.887-0.288-1.799-1.599
			c0.124-1.868,0.102-3.745,0.086-5.618c-0.009-1.072,0.497-1.505,1.633-1.413c0.558,0.045,1.124,0.004,1.686,0.004
			c20.694,0.015,41.387,0.038,62.082,0.041c4.608,0,8.607,1.265,11.592,4.666c4.586,5.223,4.165,11.778-2.467,16.106
			c-1.321,0.862-2.983,1.329-4.55,1.799c-1.109,0.332-0.83,0.685-0.307,1.24C117.332,43.925,118.117,44.787,118.909,45.645z
			 M89.926,27.925c0,0.007,0,0.014,0,0.022c-5.727-0.005-11.457-0.008-17.186-0.013c-4.368-0.002-4.368-0.002-4.307,4.192
			c0.036,2.492,0.036,2.543,2.794,2.549c11.903,0.032,23.806,0.051,35.709,0.018c1.316-0.005,2.667-0.259,3.937-0.601
			c1.257-0.339,2.076-1.171,2.116-2.503c0.043-1.307-0.03-2.574-1.675-3.029c-1.04-0.287-2.126-0.584-3.195-0.595
			C102.057,27.905,95.992,27.929,89.926,27.925z"/>
		<path fill-rule="evenodd" clip-rule="evenodd" fill="#FCFCFC" d="M67.856,45.199c0.321-2.169,0.321-2.199,2.422-2.201
			c8.708-0.005,17.421,0.122,26.123-0.062c2.307-0.049,3.326,1.35,4.836,2.273c-2.243,0.303-3.431,1.655-4.188,3.508
			c-1.689,4.147-3.424,8.279-5.145,12.415c-0.16,0.384-0.275,0.815-0.543,1.127c-0.375,0.437-0.876,0.782-1.322,1.163
			c-0.309-0.398-0.696-0.763-0.914-1.2c-2.332-4.677-4.699-9.34-6.917-14.063c-0.948-2.019-2.302-2.611-4.686-2.503
			C74.316,45.801,71.079,45.378,67.856,45.199z"/>
		<path fill-rule="evenodd" clip-rule="evenodd" fill="#FCFCFC" d="M38.065,63.531c1.756,0.002,3.521-0.093,5.262,0.051
			c0.713,0.059,1.403,0.591,2.052,0.984c0.232,0.14,0.423,0.508,0.412,0.764c-0.007,0.145-0.47,0.396-0.716,0.384
			c-1-0.045-1.995-0.255-2.991-0.26c-3.333-0.016-6.666,0.001-9.998,0.061c-2.234,0.039-4.464,0.184-6.697,0.238
			c-0.225,0.004-0.458-0.29-0.687-0.447c0.242-0.159,0.461-0.375,0.73-0.471c1.031-0.366,2.078-0.693,3.119-1.035
			c-0.652-0.815-1.34-1.608-1.94-2.455c-0.297-0.42-0.482-0.927-0.622-1.418c-0.146-0.509-0.252-0.943,0.731-0.8
			c2.021,0.294,2.819-1.266,3.775-2.462c0.194-0.244,0.156-0.871-0.056-1.099c-0.167-0.182-0.831-0.148-1.158,0.005
			c-2.562,1.192-4.743,0.665-6.635-1.196c-0.177-0.173-0.129-0.544-0.185-0.823c0.271-0.025,0.572-0.138,0.808-0.066
			c2.188,0.667,4.261,0.119,6.147-0.767c1.427-0.67,2.556-0.56,3.731,0.231c0.982,0.662,1.227,1.232-0.301,1.547
			c-1.77,0.364-0.657,0.794,0.018,1.141c2.511,1.294,3.159,3.324,2.827,5.817C35.384,63.753,35.438,63.768,38.065,63.531z"/>
		<path fill-rule="evenodd" clip-rule="evenodd" fill="#FCFCFC" d="M148.12,66.043c-1.231-0.057-2.139-0.031-3.021-0.159
			c-2.255-0.324-2.454-0.67-1.964-2.884c0.08-0.366,0.2-0.985,0.022-1.095c-2.063-1.268-0.807-2.149,0.419-2.887
			c3.919-2.356,6.133-5.948,8.291-9.59c0.217-0.363,0.328-0.778,0.555-1.131c0.561-0.874,1.431-1.097,2.238-0.474
			c0.253,0.197,0.128,1.146-0.158,1.547c-1.346,1.896-2.82,3.715-4.22,5.583c-0.202,0.269-0.234,0.649-0.346,0.977
			c0.429-0.012,0.945,0.119,1.27-0.057c2.11-1.16,4.364-2.154,5.701-4.244c0.234-0.366,0.979-0.451,1.488-0.667
			c0.013,0.554,0.142,1.136-0.002,1.653c-0.097,0.343-0.541,0.652-0.901,0.877c-2.684,1.69-5.246,3.61-8.124,4.938
			c-2.029,0.938-2.852,2.502-3.865,4.045c-0.173,0.264,0.245,1.228,0.617,1.375c3.634,1.435,7.199,0.013,9.143-3.53
			c0.143-0.259,0.416-0.458,0.628-0.686c0.07,0.268,0.208,0.537,0.201,0.805c-0.057,2.64-1.875,4.81-4.616,5.339
			C150.278,66.01,149.024,65.977,148.12,66.043z"/>
		<path fill-rule="evenodd" clip-rule="evenodd" fill="#FCFCFC" d="M146.052,49.751c0.036,1.947-1.192,3.269-2.617,4.481
			c-0.567,0.483-1.238,0.867-1.763,1.384c-0.563,0.552-1.514,1.429,0.478,0.954c0.046,0.24,0.227,0.562,0.119,0.706
			c-1.992,2.723-4.011,5.428-6.048,8.124c-0.179,0.237-0.505,0.5-0.79,0.526c-0.406,0.039-0.861-0.084-1.244-0.243
			c-0.08-0.033-0.019-0.58,0.127-0.807c0.926-1.418,1.988-2.769,2.807-4.235c0.348-0.618,0.697-1.881-1.049-1.029
			c-0.098,0.048-0.631-0.395-0.606-0.444c0.538-1.009,0.861-2.481,1.752-2.899c3.323-1.558,5.505-4.179,8-6.529
			c0.135-0.128,0.59,0.033,0.898,0.061L146.052,49.751z"/>
		<path fill-rule="evenodd" clip-rule="evenodd" fill="#FCFCFC" d="M25.611,47.834c0.51,0.169,1.468,0.217,1.869,0.681
			c0.73,0.843,1.132,1.932,1.67,2.919c-1.401,0.16-2.804,0.322-4.207,0.482c-0.036-0.319-0.221-0.842-0.085-0.927
			c1.254-0.783,0.949-1.46-0.05-2.178c-0.25-0.18-0.421-0.454-0.628-0.684C24.562,48.048,24.944,47.972,25.611,47.834z"/>
		<path fill-rule="evenodd" clip-rule="evenodd" fill="#FCFCFC" d="M146.115,49.8c0.069-0.122,0.139-0.243,0.21-0.365
			c0.008,0.068,0.049,0.175,0.02,0.197c-0.081,0.059-0.193,0.083-0.293,0.12L146.115,49.8z"/>
		<path fill-rule="evenodd" clip-rule="evenodd" fill="#FCFCFC" d="M89.926,27.925c6.066,0.004,12.13-0.02,18.194,0.041
			c1.069,0.011,2.155,0.309,3.195,0.595c1.645,0.455,1.718,1.722,1.675,3.029c-0.04,1.332-0.859,2.164-2.116,2.503
			c-1.27,0.342-2.62,0.596-3.937,0.601c-11.903,0.033-23.806,0.014-35.709-0.018c-2.759-0.006-2.759-0.058-2.794-2.549
			c-0.062-4.194-0.062-4.194,4.307-4.192c5.729,0.004,11.458,0.008,17.186,0.013C89.926,27.938,89.926,27.932,89.926,27.925z"/>
	</g>
</g>
</svg>
